<?xml version="1.0" encoding="UTF-8"?><svg id="Layer_1" xmlns="http://www.w3.org/2000/svg" viewBox="0 0 453.228 244.704"><defs><style>.cls-1{fill:#feffff;}.cls-2{fill:#056da3;}.cls-3{fill:#42bfe6;}.cls-4{fill:#2f2f2f;}.cls-5{fill:none;stroke:#fff;stroke-width:20px;}</style></defs><g><path class="cls-5" d="M173.232,229.976c2.259,3.149,4.445,5.589,5.549,8.673,1.418,3.963,.182,5.852-4.035,6.026-10.135,.418-18.963-3.76-27.535-8.366-5.085-2.732-9.81-6.155-14.583-9.434-2.047-1.407-4.211-2.054-6.605-2.467-33.334-5.763-64.401-17.349-92.609-36.225-8.126-5.438-15.579-11.591-21.206-19.738-2.675-3.872-4.846-7.878-4.37-12.762,.234-2.4-1.339-3.729-2.645-5.271-6.012-7.099-6.878-12.441-2.217-20.585C24.469,92.276,54.897,64.911,95.511,49.257c8.608-3.318,17.326-6.319,26.404-7.878,4.918-.844,8.346-3.207,11.359-6.928,9.74-12.029,21.811-21.494,34.233-30.526,3.447-2.507,7.176-4.052,11.768-3.917,4.305,.127,5.971,2.027,5.869,5.832-.142,5.276-.771,10.54-.894,15.816-.331,14.185-.248,13.963,13.431,15.231,9.779,.907,19.411,3.033,29.074,4.696,11.943,2.055,23.596,4.966,35.298,7.852,2.503,.617,4.165-.112,5.865-1.887,4.478-4.676,9.033-9.277,14.13-13.313,10.38-8.221,19.159-6.568,24.791,5.299,4.628,9.751,10.638,18.625,16.165,27.817,1.593,2.649,4.148,3.364,6.589,4.478,12.242,5.588,24.6,10.938,36.681,16.856,4.376,2.144,7.045,1.157,9.395-2.438,10.276-15.721,22.569-29.94,33.545-45.14,3.31-4.583,7.131-8.68,12.073-11.619,4.373-2.601,8.827-3.652,13.544-1.042,4.883,2.702,6.554,7.156,6.51,12.447-.072,8.654-2.808,16.748-5.281,24.898-3.88,12.788-5.235,26.028-6.967,39.199-.964,7.335,3.368,12.984,6.045,19.185,3.859,8.942,8.786,17.286,13.792,25.601,1.672,2.777,3.018,5.731,3.778,8.905,2.524,10.538-4.422,18.354-15.212,17.218-8.431-.888-15.561-4.984-22.416-9.422-8.864-5.739-17.419-11.959-26.073-18.02-4.305-3.015-7.699-3.274-12.746,.055-16.964,11.19-32.041,24.895-49.085,35.918-2.144,1.387-3.264,3.359-4.09,5.669-1.838,5.136-3.65,10.288-5.696,15.342-3.379,8.349-8.129,11.308-17.167,10.288-5.231-.59-10.467-1.588-15.54-2.985-4.652-1.281-8.842-1.001-13.324,.756-30.89,12.111-62.935,17.503-96.106,16.105-.456-.019-.92,.161-2.021,.369Zm203.997-107.712c-2.528-3.706-6.718-5.135-10.336-7.22-8.14-4.689-16.785-6.956-26.428-5.601-8.739,1.228-17.528,2.559-26.432,2.21-12.671-.497-22.426-6.902-31.654-14.892-11.709-10.139-25.131-13.211-39.316-6.064-17.645,8.89-34.71,7.756-51.083-2.104-17.245-10.385-34.198-12.214-52.047-1.947-3.78,2.174-8.134,3.539-12.384,4.676-13.357,3.571-26.55,2.881-39.662-1.703-10.699-3.74-21.086-3.543-30.258,4.317-12.496,10.707-23.284,22.871-32.264,36.709-2.423,3.733-.742,4.076,2.232,4.566,8.802,1.449,17.115,4.33,25.032,8.451,3.084,1.605,5.234,3.745,5.763,7.274-3.087,5.477-4.763,6.205-10.575,4.186-2.724-.946-5.328-2.235-7.996-3.346-2.553-1.063-5.215-1.67-7.97-1.227-4.389,.707-5.774,3.745-3.129,7.298,1.916,2.575,4.158,4.969,6.546,7.12,11.129,10.029,24.49,16.471,37.701,23.131,8.121,4.094,16.815,6.763,25.555,10.138,6.703-13.1,7.173-26.988,5.302-41.194-1.293-16.849-2.883-33.633-10.839-49.008-1.059-2.047-1.96-4.138,.163-6.043,1.947-1.747,4.126-1.3,6.215-.276,3.021,1.481,5.265,3.874,6.628,6.864,3.428,7.52,6.553,15.234,8.178,23.319,.87,4.328,2.003,4.25,5.484,2.721,17.286-7.594,34.975-12.283,54.105-7.556,4.213,1.041,5.59,2.767,5.63,6.863,.101,10.463-4.004,19.181-10.449,27.053-1.076,1.083-2.344,2.034-3.196,3.271-6.017,8.73-14.149,11.175-24.119,8.294-5.891-1.702-11.79-3.381-17.635-5.23-2.422-.766-3.392-.425-3.253,2.363,.493,9.908-1.857,19.324-5.739,28.32-1.512,3.504-.188,4.267,2.821,4.908,8.669,1.848,17.362,3.496,26.15,4.694,28.994,3.952,57.916,4.471,86.674-1.817,40.449-8.845,75.815-27.888,108.003-53.54,12.194-9.718,24.308-19.718,38.87-26.018,2.437-1.054,3.122-2.875-.284-3.96Z"/><path class="cls-5" d="M58.391,150.935c-.529-3.529-2.679-5.669-5.763-7.274-7.917-4.121-16.231-7.002-25.032-8.451-2.974-.49-4.654-.833-2.232-4.566,8.98-13.838,19.769-26.002,32.264-36.709,9.172-7.859,19.558-8.057,30.258-4.317,13.112,4.584,26.305,5.274,39.662,1.703,4.25-1.136,8.604-2.501,12.384-4.676,17.848-10.266,34.802-8.437,52.047,1.947,16.373,9.86,33.439,10.994,51.083,2.104,14.185-7.147,27.607-4.075,39.316,6.064,9.228,7.991,18.983,14.396,31.654,14.892,8.904,.349,17.692-.981,26.432-2.21,9.642-1.355,18.288,.912,26.428,5.601,3.619,2.085,7.808,3.514,10.332,7.22-.792,.616-1.488,1.468-2.38,1.814-26.847,10.419-54.239,19.108-82.284,25.684-32.1,7.527-64.663,11.41-97.612,11.912-8.664,.132-17.377,.851-26.01-.694,6.445-7.872,10.55-16.59,10.449-27.053-.039-4.096-1.417-5.822-5.63-6.863-19.13-4.727-36.819-.038-54.105,7.556-3.48,1.529-4.614,1.607-5.484-2.721-1.625-8.084-4.75-15.798-8.178-23.319-1.363-2.99-3.607-5.383-6.628-6.864-2.089-1.024-4.268-1.472-6.215,.276-2.123,1.905-1.222,3.996-.163,6.043,7.956,15.376,9.546,32.159,10.837,49.006-15.324-.708-30.398-3.249-45.431-6.104Zm-9.197-26.145c.047,7.565,5.668,13.685,12.436,13.54,5.469-.117,12.097-7.432,12.224-13.492,.137-6.562-6.414-13.842-12.44-13.822-6.817,.022-12.267,6.164-12.22,13.774Z"/><path class="cls-5" d="M168.939,160.979c8.633,1.546,17.346,.826,26.01,.694,32.949-.502,65.511-4.384,97.612-11.912,28.045-6.576,55.437-15.265,82.284-25.684,.892-.346,1.589-1.198,2.38-1.814,3.41,1.085,2.725,2.906,.288,3.96-14.562,6.3-26.676,16.3-38.87,26.018-32.187,25.653-67.553,44.695-108.003,53.54-28.758,6.289-57.68,5.769-86.674,1.817-8.788-1.198-17.481-2.846-26.15-4.694-3.009-.641-4.333-1.404-2.821-4.908,3.882-8.996,6.233-18.411,5.739-28.32-.139-2.789,.831-3.13,3.253-2.363,5.845,1.849,11.745,3.528,17.635,5.23,9.97,2.881,18.102,.436,24.119-8.294,.853-1.237,2.121-2.188,3.196-3.271Z"/><path class="cls-5" d="M58.391,150.935c15.032,2.856,30.107,5.397,45.431,6.104,1.873,14.208,1.403,28.096-5.299,41.196-8.74-3.375-17.434-6.044-25.555-10.138-13.211-6.66-26.572-13.102-37.701-23.131-2.388-2.152-4.63-4.546-6.546-7.12-2.644-3.553-1.259-6.591,3.129-7.298,2.755-.444,5.417,.164,7.97,1.227,2.668,1.111,5.272,2.4,7.996,3.346,5.812,2.018,7.488,1.29,10.575-4.186Z"/><path class="cls-5" d="M49.194,124.79c-.047-7.61,5.402-13.752,12.22-13.774,6.026-.019,12.578,7.26,12.44,13.822-.127,6.059-6.755,13.374-12.224,13.492-6.768,.145-12.389-5.976-12.436-13.54Z"/></g><g><path class="cls-2" d="M173.232,229.976c2.259,3.149,4.445,5.589,5.549,8.673,1.418,3.963,.182,5.852-4.035,6.026-10.135,.418-18.963-3.76-27.535-8.366-5.085-2.732-9.81-6.155-14.583-9.434-2.047-1.407-4.211-2.054-6.605-2.467-33.334-5.763-64.401-17.349-92.609-36.225-8.126-5.438-15.579-11.591-21.206-19.738-2.675-3.872-4.846-7.878-4.37-12.762,.234-2.4-1.339-3.729-2.645-5.271-6.012-7.099-6.878-12.441-2.217-20.585C24.469,92.276,54.897,64.911,95.511,49.257c8.608-3.318,17.326-6.319,26.404-7.878,4.918-.844,8.346-3.207,11.359-6.928,9.74-12.029,21.811-21.494,34.233-30.526,3.447-2.507,7.176-4.052,11.768-3.917,4.305,.127,5.971,2.027,5.869,5.832-.142,5.276-.771,10.54-.894,15.816-.331,14.185-.248,13.963,13.431,15.231,9.779,.907,19.411,3.033,29.074,4.696,11.943,2.055,23.596,4.966,35.298,7.852,2.503,.617,4.165-.112,5.865-1.887,4.478-4.676,9.033-9.277,14.13-13.313,10.38-8.221,19.159-6.568,24.791,5.299,4.628,9.751,10.638,18.625,16.165,27.817,1.593,2.649,4.148,3.364,6.589,4.478,12.242,5.588,24.6,10.938,36.681,16.856,4.376,2.144,7.045,1.157,9.395-2.438,10.276-15.721,22.569-29.94,33.545-45.14,3.31-4.583,7.131-8.68,12.073-11.619,4.373-2.601,8.827-3.652,13.544-1.042,4.883,2.702,6.554,7.156,6.51,12.447-.072,8.654-2.808,16.748-5.281,24.898-3.88,12.788-5.235,26.028-6.967,39.199-.964,7.335,3.368,12.984,6.045,19.185,3.859,8.942,8.786,17.286,13.792,25.601,1.672,2.777,3.018,5.731,3.778,8.905,2.524,10.538-4.422,18.354-15.212,17.218-8.431-.888-15.561-4.984-22.416-9.422-8.864-5.739-17.419-11.959-26.073-18.02-4.305-3.015-7.699-3.274-12.746,.055-16.964,11.19-32.041,24.895-49.085,35.918-2.144,1.387-3.264,3.359-4.09,5.669-1.838,5.136-3.65,10.288-5.696,15.342-3.379,8.349-8.129,11.308-17.167,10.288-5.231-.59-10.467-1.588-15.54-2.985-4.652-1.281-8.842-1.001-13.324,.756-30.89,12.111-62.935,17.503-96.106,16.105-.456-.019-.92,.161-2.021,.369Zm203.997-107.712c-2.528-3.706-6.718-5.135-10.336-7.22-8.14-4.689-16.785-6.956-26.428-5.601-8.739,1.228-17.528,2.559-26.432,2.21-12.671-.497-22.426-6.902-31.654-14.892-11.709-10.139-25.131-13.211-39.316-6.064-17.645,8.89-34.71,7.756-51.083-2.104-17.245-10.385-34.198-12.214-52.047-1.947-3.78,2.174-8.134,3.539-12.384,4.676-13.357,3.571-26.55,2.881-39.662-1.703-10.699-3.74-21.086-3.543-30.258,4.317-12.496,10.707-23.284,22.871-32.264,36.709-2.423,3.733-.742,4.076,2.232,4.566,8.802,1.449,17.115,4.33,25.032,8.451,3.084,1.605,5.234,3.745,5.763,7.274-3.087,5.477-4.763,6.205-10.575,4.186-2.724-.946-5.328-2.235-7.996-3.346-2.553-1.063-5.215-1.67-7.97-1.227-4.389,.707-5.774,3.745-3.129,7.298,1.916,2.575,4.158,4.969,6.546,7.12,11.129,10.029,24.49,16.471,37.701,23.131,8.121,4.094,16.815,6.763,25.555,10.138,6.703-13.1,7.173-26.988,5.302-41.194-1.293-16.849-2.883-33.633-10.839-49.008-1.059-2.047-1.96-4.138,.163-6.043,1.947-1.747,4.126-1.3,6.215-.276,3.021,1.481,5.265,3.874,6.628,6.864,3.428,7.52,6.553,15.234,8.178,23.319,.87,4.328,2.003,4.25,5.484,2.721,17.286-7.594,34.975-12.283,54.105-7.556,4.213,1.041,5.59,2.767,5.63,6.863,.101,10.463-4.004,19.181-10.449,27.053-1.076,1.083-2.344,2.034-3.196,3.271-6.017,8.73-14.149,11.175-24.119,8.294-5.891-1.702-11.79-3.381-17.635-5.23-2.422-.766-3.392-.425-3.253,2.363,.493,9.908-1.857,19.324-5.739,28.32-1.512,3.504-.188,4.267,2.821,4.908,8.669,1.848,17.362,3.496,26.15,4.694,28.994,3.952,57.916,4.471,86.674-1.817,40.449-8.845,75.815-27.888,108.003-53.54,12.194-9.718,24.308-19.718,38.87-26.018,2.437-1.054,3.122-2.875-.284-3.96Z"/><path class="cls-3" d="M58.391,150.935c-.529-3.529-2.679-5.669-5.763-7.274-7.917-4.121-16.231-7.002-25.032-8.451-2.974-.49-4.654-.833-2.232-4.566,8.98-13.838,19.769-26.002,32.264-36.709,9.172-7.859,19.558-8.057,30.258-4.317,13.112,4.584,26.305,5.274,39.662,1.703,4.25-1.136,8.604-2.501,12.384-4.676,17.848-10.266,34.802-8.437,52.047,1.947,16.373,9.86,33.439,10.994,51.083,2.104,14.185-7.147,27.607-4.075,39.316,6.064,9.228,7.991,18.983,14.396,31.654,14.892,8.904,.349,17.692-.981,26.432-2.21,9.642-1.355,18.288,.912,26.428,5.601,3.619,2.085,7.808,3.514,10.332,7.22-.792,.616-1.488,1.468-2.38,1.814-26.847,10.419-54.239,19.108-82.284,25.684-32.1,7.527-64.663,11.41-97.612,11.912-8.664,.132-17.377,.851-26.01-.694,6.445-7.872,10.55-16.59,10.449-27.053-.039-4.096-1.417-5.822-5.63-6.863-19.13-4.727-36.819-.038-54.105,7.556-3.48,1.529-4.614,1.607-5.484-2.721-1.625-8.084-4.75-15.798-8.178-23.319-1.363-2.99-3.607-5.383-6.628-6.864-2.089-1.024-4.268-1.472-6.215,.276-2.123,1.905-1.222,3.996-.163,6.043,7.956,15.376,9.546,32.159,10.837,49.006-15.324-.708-30.398-3.249-45.431-6.104Zm-9.197-26.145c.047,7.565,5.668,13.685,12.436,13.54,5.469-.117,12.097-7.432,12.224-13.492,.137-6.562-6.414-13.842-12.44-13.822-6.817,.022-12.267,6.164-12.22,13.774Z"/><path class="cls-1" d="M168.939,160.979c8.633,1.546,17.346,.826,26.01,.694,32.949-.502,65.511-4.384,97.612-11.912,28.045-6.576,55.437-15.265,82.284-25.684,.892-.346,1.589-1.198,2.38-1.814,3.41,1.085,2.725,2.906,.288,3.96-14.562,6.3-26.676,16.3-38.87,26.018-32.187,25.653-67.553,44.695-108.003,53.54-28.758,6.289-57.68,5.769-86.674,1.817-8.788-1.198-17.481-2.846-26.15-4.694-3.009-.641-4.333-1.404-2.821-4.908,3.882-8.996,6.233-18.411,5.739-28.32-.139-2.789,.831-3.13,3.253-2.363,5.845,1.849,11.745,3.528,17.635,5.23,9.97,2.881,18.102,.436,24.119-8.294,.853-1.237,2.121-2.188,3.196-3.271Z"/><path class="cls-1" d="M58.391,150.935c15.032,2.856,30.107,5.397,45.431,6.104,1.873,14.208,1.403,28.096-5.299,41.196-8.74-3.375-17.434-6.044-25.555-10.138-13.211-6.66-26.572-13.102-37.701-23.131-2.388-2.152-4.63-4.546-6.546-7.12-2.644-3.553-1.259-6.591,3.129-7.298,2.755-.444,5.417,.164,7.97,1.227,2.668,1.111,5.272,2.4,7.996,3.346,5.812,2.018,7.488,1.29,10.575-4.186Z"/><path class="cls-4" d="M49.194,124.79c-.047-7.61,5.402-13.752,12.22-13.774,6.026-.019,12.578,7.26,12.44,13.822-.127,6.059-6.755,13.374-12.224,13.492-6.768,.145-12.389-5.976-12.436-13.54Z"/></g></svg>